PathFileType	4	(X/Y/Z)	Kaydara																																																																																																																									
DataRate	CameraRate	NumFrames	NumMarkers	Units	OrigDataRate	OrigDataStartFrame	OrigNumFrames																																																																																																																					
30	30	4	41	mm	30	140	372																																																																																																																					
Frame#	Time	NABA_LFHD			NABA_RFHD			NABA_LBHD			NABA_RBHD			NABA_LFTShould			NABA_RFTShould			NABA_LRRShould			NABA_RRRShould			NABA_T10			NABA_STRN			NABA_TRUN			NABA_LSHO			NABA_LUPA			NABA_LELB			NABA_LFRM			NABA_LWRA			NABA_LWRB			NABA_LFIN			NABA_RSHO			NABA_RUPA			NABA_RELB			NABA_RFRM			NABA_RWRA			NABA_RWRB			NABA_RFIN			NABA_LFWT			NABA_RFWT			NABA_LBWT			NABA_RBWT			NABA_LTHI			NABA_LKNE			NABA_LSHN			NABA_LANK			NABA_LHEE			NABA_LTOE			NABA_RTHI			NABA_RKNE			NABA_RSHN			NABA_RANK			NABA_RHEE			NABA_RTOE		
		X1	Y1	Z1	X2	Y2	Z2	X3	Y3	Z3	X4	Y4	Z4	X5	Y5	Z5	X6	Y6	Z6	X7	Y7	Z7	X8	Y8	Z8	X9	Y9	Z9	X10	Y10	Z10	X11	Y11	Z11	X12	Y12	Z12	X13	Y13	Z13	X14	Y14	Z14	X15	Y15	Z15	X16	Y16	Z16	X17	Y17	Z17	X18	Y18	Z18	X19	Y19	Z19	X20	Y20	Z20	X21	Y21	Z21	X22	Y22	Z22	X23	Y23	Z23	X24	Y24	Z24	X25	Y25	Z25	X26	Y26	Z26	X27	Y27	Z27	X28	Y28	Z28	X29	Y29	Z29	X30	Y30	Z30	X31	Y31	Z31	X32	Y32	Z32	X33	Y33	Z33	X34	Y34	Z34	X35	Y35	Z35	X36	Y36	Z36	X37	Y37	Z37	X38	Y38	Z38	X39	Y39	Z39	X40	Y40	Z40	X41	Y41	Z41
																																																																																																																												
140	4.643	261.78598	1466.48651	-832.67494	91.90361	1434.15192	-828.72192	273.29599	1539.4574	-935.38536	57.39524	1494.91135	-903.1781	249.75925	1300.36636	-999.869	116.27207	1295.03342	-998.61488	246.82709	1368.53836	-1109.38515	97.86291	1362.8334	-1098.58696	181.26005	1212.32185	-1196.29402	185.74955	1239.87289	-958.98415	188.44904	1139.1259	-919.95827	348.24871	1328.35922	-1051.8264	402.63489	1091.21544	-1102.46384	411.33335	1005.77545	-1082.95792	402.355	934.29276	-1106.90186	345.8979	786.60446	-1030.70045	417.73483	784.8848	-1035.77179	397.23774	726.48239	-993.79883	20.07636	1322.1933	-1036.23535	-29.31449	1118.41553	-1116.99059	-53.99154	996.59721	-1078.04909	-56.34618	901.82724	-1072.27768	13.09003	778.59116	-995.03799	-59.96533	765.42824	-996.59271	-43.77074	729.14207	-965.6604	313.34732	928.46855	-1007.91573	48.60397	928.03589	-1002.56241	257.75326	994.30023	-1175.90042	88.70941	1003.22586	-1177.80205	298.1353	639.06761	-1172.63603	288.9146	484.22394	-1134.00848	222.5964	289.60598	-1141.92177	237.71208	151.93622	-1238.32413	176.75978	118.07903	-1302.49268	208.12889	67.10504	-1128.54164	37.08229	631.37821	-1073.64319	58.23051	515.50587	-913.40271	65.96987	347.98527	-873.97346	54.55857	146.06202	-867.66296	100.43133	76.48661	-915.78918	98.51169	120.36034	-715.8403
141	4.677	260.49057	1465.90424	-819.3644	90.72089	1433.78815	-814.403	271.46055	1538.64639	-922.27829	55.71083	1494.31885	-888.80035	247.59102	1299.57367	-986.33469	113.91622	1294.19662	-984.31137	243.99441	1367.81982	-1095.80536	95.07057	1361.99692	-1084.24606	177.9439	1211.61217	-1182.56218	183.61784	1238.9312	-945.23186	186.6534	1138.17993	-906.30508	345.69748	1327.55737	-1038.94852	400.11608	1091.22986	-1091.76399	409.78397	1005.61661	-1072.81822	401.12488	934.4754	-1097.54021	347.25163	785.16785	-1022.94983	419.05575	784.30893	-1028.97911	399.77234	725.00664	-987.56042	17.46028	1321.28891	-1021.57967	-32.10732	1118.17101	-1103.40385	-56.65162	995.9063	-1065.26703	-59.03731	901.15608	-1060.51025	10.89915	777.07954	-985.28015	-62.05895	763.90053	-986.37993	-45.40719	726.89781	-956.18103	312.08055	928.07907	-995.75737	47.38522	926.25999	-988.04466	254.7196	994.12048	-1163.04642	85.62587	1002.16217	-1163.43987	296.57135	640.07393	-1163.18275	288.82647	484.82117	-1126.39297	222.93242	289.64085	-1137.98912	237.98508	154.00691	-1236.43768	176.78564	121.20945	-1300.74265	208.89227	67.02266	-1127.97073	37.05804	629.72191	-1060.40596	59.80691	513.14034	-902.05101	67.58975	345.81303	-862.78984	56.73337	143.89502	-855.24879	103.25701	74.17995	-902.94487	99.60441	118.94717	-703.27332
142	4.71	258.78132	1465.20706	-805.10109	89.12225	1433.08731	-799.25842	269.20145	1537.86285	-908.22266	53.62853	1493.56476	-873.45253	245.31479	1299.00558	-971.77269	111.332	1293.4549	-969.0538	240.67207	1367.01645	-1081.3987	91.84905	1361.09863	-1068.84933	174.02752	1210.71945	-1167.76611	181.22757	1238.16483	-930.33112	184.50138	1137.20787	-891.68686	342.75398	1326.68167	-1025.1133	397.34875	1091.1554	-1079.77562	407.75074	1005.54062	-1061.80069	399.37061	934.84207	-1087.36771	348.16673	783.68973	-1014.77417	419.76673	783.82828	-1021.51131	401.59931	723.61023	-980.94315	14.51342	1320.35187	-1005.91751	-35.47757	1117.87949	-1088.69301	-59.90346	995.22835	-1051.27991	-62.14751	900.48157	-1047.49695	8.47925	775.88081	-973.44574	-64.40906	762.43042	-974.8037	-47.47843	724.93553	-945.23376	310.59708	927.73834	-983.17215	46.01947	924.53918	-971.90475	250.77602	994.07013	-1149.40323	81.85058	1001.05858	-1147.53738	294.86019	641.28822	-1153.37204	288.80039	485.57083	-1118.45703	223.93927	289.9094	-1132.98683	238.51566	156.44667	-1234.48929	176.97458	124.61796	-1298.75366	209.72126	66.91854	-1127.3584	36.09236	627.81433	-1047.62428	59.70475	509.1143	-891.77322	68.44028	341.48109	-854.235	58.85968	139.42882	-848.82095	105.61104	70.64809	-897.32918	102.41186	112.51807	-697.07863
143	4.743	256.7164	1464.41925	-789.86237	87.21352	1432.23755	-783.1324	266.58524	1536.95831	-893.15674	51.21004	1492.5882	-857.11525	242.10333	1298.02444	-956.55602	108.29421	1292.3642	-952.53891	236.69012	1366.10596	-1066.23817	87.887	1360.04044	-1052.40456	169.18919	1209.72458	-1151.94206	178.62185	1237.1981	-914.52675	182.45409	1136.24428	-875.95444	339.24282	1325.74051	-1010.65895	393.98735	1090.96611	-1067.23991	405.15244	1005.48317	-1050.08461	397.10423	935.24925	-1076.44829	349.30477	782.30247	-1006.36055	419.78371	783.48976	-1013.25401	402.62928	722.35344	-973.4317	11.09218	1319.25293	-988.9473	-39.09628	1117.47963	-1072.7549	-63.3709	994.40819	-1036.15593	-65.63332	899.63043	-1033.18222	5.5809	774.22707	-960.93987	-67.4335	760.93292	-961.53297	-50.29786	723.17101	-932.52785	308.74598	927.22748	-969.68361	44.28635	922.56317	-954.0361	246.09312	994.00558	-1134.77806	77.03525	1000.03693	-1129.98268	292.80386	642.55569	-1142.98447	288.66241	486.34159	-1109.79607	225.08478	290.37191	-1127.58018	239.23445	159.21677	-1232.34299	177.41398	128.41492	-1296.58768	210.79632	66.84381	-1126.67763	34.67218	625.95402	-1035.4483	59.11006	503.67691	-882.70607	68.57138	335.8696	-848.36403	60.07905	134.0907	-846.29784	107.07661	67.27936	-895.59868	105.22435	101.96452	-694.21333
